<?xml version="1.0" encoding="UTF-8" standalone="no"?>
<!DOCTYPE svg PUBLIC "-//W3C//DTD SVG 1.1//EN"
 "http://www.w3.org/Graphics/SVG/1.1/DTD/svg11.dtd">
<!-- Generated by graphviz version 3.0.0 (20220226.1711)
 -->
<!-- Title: G Pages: 1 -->
<svg width="1103pt" height="737pt"
 viewBox="0.00 0.00 827.50 553.00" xmlns="http://www.w3.org/2000/svg" xmlns:xlink="http://www.w3.org/1999/xlink">
<g id="graph0" class="graph" transform="scale(1.33333 1.33333) rotate(0) translate(4 549)">
<title>G</title>
<polygon fill="white" stroke="transparent" points="-4,4 -4,-549 823.5,-549 823.5,4 -4,4"/>
<!-- 140286354046424 -->
<g id="node1" class="node">
<title>140286354046424</title>
<polygon fill="none" stroke="black" points="73,-498.5 73,-544.5 331,-544.5 331,-498.5 73,-498.5"/>
<text text-anchor="middle" x="135.5" y="-517.8" font-family="Times,serif" font-size="14.00">input_8: InputLayer</text>
<polyline fill="none" stroke="black" points="198,-498.5 198,-544.5 "/>
<text text-anchor="middle" x="225.5" y="-529.3" font-family="Times,serif" font-size="14.00">input:</text>
<polyline fill="none" stroke="black" points="198,-521.5 253,-521.5 "/>
<text text-anchor="middle" x="225.5" y="-506.3" font-family="Times,serif" font-size="14.00">output:</text>
<polyline fill="none" stroke="black" points="253,-498.5 253,-544.5 "/>
<text text-anchor="middle" x="292" y="-529.3" font-family="Times,serif" font-size="14.00">[(None, 4)]</text>
<polyline fill="none" stroke="black" points="253,-521.5 331,-521.5 "/>
<text text-anchor="middle" x="292" y="-506.3" font-family="Times,serif" font-size="14.00">[(None, 4)]</text>
</g>
<!-- 140286354043512 -->
<g id="node3" class="node">
<title>140286354043512</title>
<polygon fill="none" stroke="black" points="78.5,-415.5 78.5,-461.5 325.5,-461.5 325.5,-415.5 78.5,-415.5"/>
<text text-anchor="middle" x="133" y="-434.8" font-family="Times,serif" font-size="14.00">dense_17: Dense</text>
<polyline fill="none" stroke="black" points="187.5,-415.5 187.5,-461.5 "/>
<text text-anchor="middle" x="215" y="-446.3" font-family="Times,serif" font-size="14.00">input:</text>
<polyline fill="none" stroke="black" points="187.5,-438.5 242.5,-438.5 "/>
<text text-anchor="middle" x="215" y="-423.3" font-family="Times,serif" font-size="14.00">output:</text>
<polyline fill="none" stroke="black" points="242.5,-415.5 242.5,-461.5 "/>
<text text-anchor="middle" x="284" y="-446.3" font-family="Times,serif" font-size="14.00">(None, 4)</text>
<polyline fill="none" stroke="black" points="242.5,-438.5 325.5,-438.5 "/>
<text text-anchor="middle" x="284" y="-423.3" font-family="Times,serif" font-size="14.00">(None, 256)</text>
</g>
<!-- 140286354046424&#45;&gt;140286354043512 -->
<g id="edge1" class="edge">
<title>140286354046424&#45;&gt;140286354043512</title>
<path fill="none" stroke="black" d="M202,-498.37C202,-490.15 202,-480.66 202,-471.73"/>
<polygon fill="black" stroke="black" points="205.5,-471.61 202,-461.61 198.5,-471.61 205.5,-471.61"/>
</g>
<!-- 140286354111120 -->
<g id="node2" class="node">
<title>140286354111120</title>
<polygon fill="none" stroke="black" points="492,-498.5 492,-544.5 750,-544.5 750,-498.5 492,-498.5"/>
<text text-anchor="middle" x="554.5" y="-517.8" font-family="Times,serif" font-size="14.00">input_9: InputLayer</text>
<polyline fill="none" stroke="black" points="617,-498.5 617,-544.5 "/>
<text text-anchor="middle" x="644.5" y="-529.3" font-family="Times,serif" font-size="14.00">input:</text>
<polyline fill="none" stroke="black" points="617,-521.5 672,-521.5 "/>
<text text-anchor="middle" x="644.5" y="-506.3" font-family="Times,serif" font-size="14.00">output:</text>
<polyline fill="none" stroke="black" points="672,-498.5 672,-544.5 "/>
<text text-anchor="middle" x="711" y="-529.3" font-family="Times,serif" font-size="14.00">[(None, 1)]</text>
<polyline fill="none" stroke="black" points="672,-521.5 750,-521.5 "/>
<text text-anchor="middle" x="711" y="-506.3" font-family="Times,serif" font-size="14.00">[(None, 1)]</text>
</g>
<!-- 140286353977016 -->
<g id="node4" class="node">
<title>140286353977016</title>
<polygon fill="none" stroke="black" points="501,-415.5 501,-461.5 741,-461.5 741,-415.5 501,-415.5"/>
<text text-anchor="middle" x="555.5" y="-434.8" font-family="Times,serif" font-size="14.00">dense_18: Dense</text>
<polyline fill="none" stroke="black" points="610,-415.5 610,-461.5 "/>
<text text-anchor="middle" x="637.5" y="-446.3" font-family="Times,serif" font-size="14.00">input:</text>
<polyline fill="none" stroke="black" points="610,-438.5 665,-438.5 "/>
<text text-anchor="middle" x="637.5" y="-423.3" font-family="Times,serif" font-size="14.00">output:</text>
<polyline fill="none" stroke="black" points="665,-415.5 665,-461.5 "/>
<text text-anchor="middle" x="703" y="-446.3" font-family="Times,serif" font-size="14.00">(None, 1)</text>
<polyline fill="none" stroke="black" points="665,-438.5 741,-438.5 "/>
<text text-anchor="middle" x="703" y="-423.3" font-family="Times,serif" font-size="14.00">(None, 48)</text>
</g>
<!-- 140286354111120&#45;&gt;140286353977016 -->
<g id="edge2" class="edge">
<title>140286354111120&#45;&gt;140286353977016</title>
<path fill="none" stroke="black" d="M621,-498.37C621,-490.15 621,-480.66 621,-471.73"/>
<polygon fill="black" stroke="black" points="624.5,-471.61 621,-461.61 617.5,-471.61 624.5,-471.61"/>
</g>
<!-- 140286354127056 -->
<g id="node5" class="node">
<title>140286354127056</title>
<polygon fill="none" stroke="black" points="0,-332.5 0,-378.5 404,-378.5 404,-332.5 0,-332.5"/>
<text text-anchor="middle" x="133" y="-351.8" font-family="Times,serif" font-size="14.00">batch_normalization_12: BatchNormalization</text>
<polyline fill="none" stroke="black" points="266,-332.5 266,-378.5 "/>
<text text-anchor="middle" x="293.5" y="-363.3" font-family="Times,serif" font-size="14.00">input:</text>
<polyline fill="none" stroke="black" points="266,-355.5 321,-355.5 "/>
<text text-anchor="middle" x="293.5" y="-340.3" font-family="Times,serif" font-size="14.00">output:</text>
<polyline fill="none" stroke="black" points="321,-332.5 321,-378.5 "/>
<text text-anchor="middle" x="362.5" y="-363.3" font-family="Times,serif" font-size="14.00">(None, 256)</text>
<polyline fill="none" stroke="black" points="321,-355.5 404,-355.5 "/>
<text text-anchor="middle" x="362.5" y="-340.3" font-family="Times,serif" font-size="14.00">(None, 256)</text>
</g>
<!-- 140286354043512&#45;&gt;140286354127056 -->
<g id="edge3" class="edge">
<title>140286354043512&#45;&gt;140286354127056</title>
<path fill="none" stroke="black" d="M202,-415.37C202,-407.15 202,-397.66 202,-388.73"/>
<polygon fill="black" stroke="black" points="205.5,-388.61 202,-378.61 198.5,-388.61 205.5,-388.61"/>
</g>
<!-- 140286353582960 -->
<g id="node6" class="node">
<title>140286353582960</title>
<polygon fill="none" stroke="black" points="422.5,-332.5 422.5,-378.5 819.5,-378.5 819.5,-332.5 422.5,-332.5"/>
<text text-anchor="middle" x="555.5" y="-351.8" font-family="Times,serif" font-size="14.00">batch_normalization_13: BatchNormalization</text>
<polyline fill="none" stroke="black" points="688.5,-332.5 688.5,-378.5 "/>
<text text-anchor="middle" x="716" y="-363.3" font-family="Times,serif" font-size="14.00">input:</text>
<polyline fill="none" stroke="black" points="688.5,-355.5 743.5,-355.5 "/>
<text text-anchor="middle" x="716" y="-340.3" font-family="Times,serif" font-size="14.00">output:</text>
<polyline fill="none" stroke="black" points="743.5,-332.5 743.5,-378.5 "/>
<text text-anchor="middle" x="781.5" y="-363.3" font-family="Times,serif" font-size="14.00">(None, 48)</text>
<polyline fill="none" stroke="black" points="743.5,-355.5 819.5,-355.5 "/>
<text text-anchor="middle" x="781.5" y="-340.3" font-family="Times,serif" font-size="14.00">(None, 48)</text>
</g>
<!-- 140286353977016&#45;&gt;140286353582960 -->
<g id="edge4" class="edge">
<title>140286353977016&#45;&gt;140286353582960</title>
<path fill="none" stroke="black" d="M621,-415.37C621,-407.15 621,-397.66 621,-388.73"/>
<polygon fill="black" stroke="black" points="624.5,-388.61 621,-378.61 617.5,-388.61 624.5,-388.61"/>
</g>
<!-- 140286353465016 -->
<g id="node7" class="node">
<title>140286353465016</title>
<polygon fill="none" stroke="black" points="220.5,-249.5 220.5,-295.5 601.5,-295.5 601.5,-249.5 220.5,-249.5"/>
<text text-anchor="middle" x="304.5" y="-268.8" font-family="Times,serif" font-size="14.00">concatenate_2: Concatenate</text>
<polyline fill="none" stroke="black" points="388.5,-249.5 388.5,-295.5 "/>
<text text-anchor="middle" x="416" y="-280.3" font-family="Times,serif" font-size="14.00">input:</text>
<polyline fill="none" stroke="black" points="388.5,-272.5 443.5,-272.5 "/>
<text text-anchor="middle" x="416" y="-257.3" font-family="Times,serif" font-size="14.00">output:</text>
<polyline fill="none" stroke="black" points="443.5,-249.5 443.5,-295.5 "/>
<text text-anchor="middle" x="522.5" y="-280.3" font-family="Times,serif" font-size="14.00">[(None, 256), (None, 48)]</text>
<polyline fill="none" stroke="black" points="443.5,-272.5 601.5,-272.5 "/>
<text text-anchor="middle" x="522.5" y="-257.3" font-family="Times,serif" font-size="14.00">(None, 304)</text>
</g>
<!-- 140286354127056&#45;&gt;140286353465016 -->
<g id="edge5" class="edge">
<title>140286354127056&#45;&gt;140286353465016</title>
<path fill="none" stroke="black" d="M258.83,-332.47C285.33,-322.21 317.02,-309.92 344.61,-299.23"/>
<polygon fill="black" stroke="black" points="346.12,-302.4 354.18,-295.52 343.59,-295.87 346.12,-302.4"/>
</g>
<!-- 140286353582960&#45;&gt;140286353465016 -->
<g id="edge6" class="edge">
<title>140286353582960&#45;&gt;140286353465016</title>
<path fill="none" stroke="black" d="M563.89,-332.47C537.28,-322.21 505.43,-309.92 477.71,-299.23"/>
<polygon fill="black" stroke="black" points="478.68,-295.86 468.09,-295.52 476.17,-302.39 478.68,-295.86"/>
</g>
<!-- 140286353400104 -->
<g id="node8" class="node">
<title>140286353400104</title>
<polygon fill="none" stroke="black" points="287.5,-166.5 287.5,-212.5 534.5,-212.5 534.5,-166.5 287.5,-166.5"/>
<text text-anchor="middle" x="342" y="-185.8" font-family="Times,serif" font-size="14.00">dense_19: Dense</text>
<polyline fill="none" stroke="black" points="396.5,-166.5 396.5,-212.5 "/>
<text text-anchor="middle" x="424" y="-197.3" font-family="Times,serif" font-size="14.00">input:</text>
<polyline fill="none" stroke="black" points="396.5,-189.5 451.5,-189.5 "/>
<text text-anchor="middle" x="424" y="-174.3" font-family="Times,serif" font-size="14.00">output:</text>
<polyline fill="none" stroke="black" points="451.5,-166.5 451.5,-212.5 "/>
<text text-anchor="middle" x="493" y="-197.3" font-family="Times,serif" font-size="14.00">(None, 304)</text>
<polyline fill="none" stroke="black" points="451.5,-189.5 534.5,-189.5 "/>
<text text-anchor="middle" x="493" y="-174.3" font-family="Times,serif" font-size="14.00">(None, 128)</text>
</g>
<!-- 140286353465016&#45;&gt;140286353400104 -->
<g id="edge7" class="edge">
<title>140286353465016&#45;&gt;140286353400104</title>
<path fill="none" stroke="black" d="M411,-249.37C411,-241.15 411,-231.66 411,-222.73"/>
<polygon fill="black" stroke="black" points="414.5,-222.61 411,-212.61 407.5,-222.61 414.5,-222.61"/>
</g>
<!-- 140286353144072 -->
<g id="node9" class="node">
<title>140286353144072</title>
<polygon fill="none" stroke="black" points="209,-83.5 209,-129.5 613,-129.5 613,-83.5 209,-83.5"/>
<text text-anchor="middle" x="342" y="-102.8" font-family="Times,serif" font-size="14.00">batch_normalization_14: BatchNormalization</text>
<polyline fill="none" stroke="black" points="475,-83.5 475,-129.5 "/>
<text text-anchor="middle" x="502.5" y="-114.3" font-family="Times,serif" font-size="14.00">input:</text>
<polyline fill="none" stroke="black" points="475,-106.5 530,-106.5 "/>
<text text-anchor="middle" x="502.5" y="-91.3" font-family="Times,serif" font-size="14.00">output:</text>
<polyline fill="none" stroke="black" points="530,-83.5 530,-129.5 "/>
<text text-anchor="middle" x="571.5" y="-114.3" font-family="Times,serif" font-size="14.00">(None, 128)</text>
<polyline fill="none" stroke="black" points="530,-106.5 613,-106.5 "/>
<text text-anchor="middle" x="571.5" y="-91.3" font-family="Times,serif" font-size="14.00">(None, 128)</text>
</g>
<!-- 140286353400104&#45;&gt;140286353144072 -->
<g id="edge8" class="edge">
<title>140286353400104&#45;&gt;140286353144072</title>
<path fill="none" stroke="black" d="M411,-166.37C411,-158.15 411,-148.66 411,-139.73"/>
<polygon fill="black" stroke="black" points="414.5,-139.61 411,-129.61 407.5,-139.61 414.5,-139.61"/>
</g>
<!-- 140286353210448 -->
<g id="node10" class="node">
<title>140286353210448</title>
<polygon fill="none" stroke="black" points="287.5,-0.5 287.5,-46.5 534.5,-46.5 534.5,-0.5 287.5,-0.5"/>
<text text-anchor="middle" x="342" y="-19.8" font-family="Times,serif" font-size="14.00">dense_20: Dense</text>
<polyline fill="none" stroke="black" points="396.5,-0.5 396.5,-46.5 "/>
<text text-anchor="middle" x="424" y="-31.3" font-family="Times,serif" font-size="14.00">input:</text>
<polyline fill="none" stroke="black" points="396.5,-23.5 451.5,-23.5 "/>
<text text-anchor="middle" x="424" y="-8.3" font-family="Times,serif" font-size="14.00">output:</text>
<polyline fill="none" stroke="black" points="451.5,-0.5 451.5,-46.5 "/>
<text text-anchor="middle" x="493" y="-31.3" font-family="Times,serif" font-size="14.00">(None, 128)</text>
<polyline fill="none" stroke="black" points="451.5,-23.5 534.5,-23.5 "/>
<text text-anchor="middle" x="493" y="-8.3" font-family="Times,serif" font-size="14.00">(None, 1)</text>
</g>
<!-- 140286353144072&#45;&gt;140286353210448 -->
<g id="edge9" class="edge">
<title>140286353144072&#45;&gt;140286353210448</title>
<path fill="none" stroke="black" d="M411,-83.37C411,-75.15 411,-65.66 411,-56.73"/>
<polygon fill="black" stroke="black" points="414.5,-56.61 411,-46.61 407.5,-56.61 414.5,-56.61"/>
</g>
</g>
</svg>
