<?xml version="1.0" encoding="UTF-8" standalone="no"?>
<!DOCTYPE svg PUBLIC "-//W3C//DTD SVG 1.1//EN"
 "http://www.w3.org/Graphics/SVG/1.1/DTD/svg11.dtd">
<!-- Generated by graphviz version 3.0.0 (20220226.1711)
 -->
<!-- Title: G Pages: 1 -->
<svg width="1087pt" height="737pt"
 viewBox="0.00 0.00 815.50 553.00" xmlns="http://www.w3.org/2000/svg" xmlns:xlink="http://www.w3.org/1999/xlink">
<g id="graph0" class="graph" transform="scale(1.33333 1.33333) rotate(0) translate(4 549)">
<title>G</title>
<polygon fill="white" stroke="transparent" points="-4,4 -4,-549 811.5,-549 811.5,4 -4,4"/>
<!-- 140669376654584 -->
<g id="node1" class="node">
<title>140669376654584</title>
<polygon fill="none" stroke="black" points="70,-498.5 70,-544.5 328,-544.5 328,-498.5 70,-498.5"/>
<text text-anchor="middle" x="132.5" y="-517.8" font-family="Times,serif" font-size="14.00">input_2: InputLayer</text>
<polyline fill="none" stroke="black" points="195,-498.5 195,-544.5 "/>
<text text-anchor="middle" x="222.5" y="-529.3" font-family="Times,serif" font-size="14.00">input:</text>
<polyline fill="none" stroke="black" points="195,-521.5 250,-521.5 "/>
<text text-anchor="middle" x="222.5" y="-506.3" font-family="Times,serif" font-size="14.00">output:</text>
<polyline fill="none" stroke="black" points="250,-498.5 250,-544.5 "/>
<text text-anchor="middle" x="289" y="-529.3" font-family="Times,serif" font-size="14.00">[(None, 4)]</text>
<polyline fill="none" stroke="black" points="250,-521.5 328,-521.5 "/>
<text text-anchor="middle" x="289" y="-506.3" font-family="Times,serif" font-size="14.00">[(None, 4)]</text>
</g>
<!-- 140669376655088 -->
<g id="node3" class="node">
<title>140669376655088</title>
<polygon fill="none" stroke="black" points="79,-415.5 79,-461.5 319,-461.5 319,-415.5 79,-415.5"/>
<text text-anchor="middle" x="130" y="-434.8" font-family="Times,serif" font-size="14.00">dense_3: Dense</text>
<polyline fill="none" stroke="black" points="181,-415.5 181,-461.5 "/>
<text text-anchor="middle" x="208.5" y="-446.3" font-family="Times,serif" font-size="14.00">input:</text>
<polyline fill="none" stroke="black" points="181,-438.5 236,-438.5 "/>
<text text-anchor="middle" x="208.5" y="-423.3" font-family="Times,serif" font-size="14.00">output:</text>
<polyline fill="none" stroke="black" points="236,-415.5 236,-461.5 "/>
<text text-anchor="middle" x="277.5" y="-446.3" font-family="Times,serif" font-size="14.00">(None, 4)</text>
<polyline fill="none" stroke="black" points="236,-438.5 319,-438.5 "/>
<text text-anchor="middle" x="277.5" y="-423.3" font-family="Times,serif" font-size="14.00">(None, 256)</text>
</g>
<!-- 140669376654584&#45;&gt;140669376655088 -->
<g id="edge1" class="edge">
<title>140669376654584&#45;&gt;140669376655088</title>
<path fill="none" stroke="black" d="M199,-498.37C199,-490.15 199,-480.66 199,-471.73"/>
<polygon fill="black" stroke="black" points="202.5,-471.61 199,-461.61 195.5,-471.61 202.5,-471.61"/>
</g>
<!-- 140669376537824 -->
<g id="node2" class="node">
<title>140669376537824</title>
<polygon fill="none" stroke="black" points="483,-498.5 483,-544.5 741,-544.5 741,-498.5 483,-498.5"/>
<text text-anchor="middle" x="545.5" y="-517.8" font-family="Times,serif" font-size="14.00">input_3: InputLayer</text>
<polyline fill="none" stroke="black" points="608,-498.5 608,-544.5 "/>
<text text-anchor="middle" x="635.5" y="-529.3" font-family="Times,serif" font-size="14.00">input:</text>
<polyline fill="none" stroke="black" points="608,-521.5 663,-521.5 "/>
<text text-anchor="middle" x="635.5" y="-506.3" font-family="Times,serif" font-size="14.00">output:</text>
<polyline fill="none" stroke="black" points="663,-498.5 663,-544.5 "/>
<text text-anchor="middle" x="702" y="-529.3" font-family="Times,serif" font-size="14.00">[(None, 1)]</text>
<polyline fill="none" stroke="black" points="663,-521.5 741,-521.5 "/>
<text text-anchor="middle" x="702" y="-506.3" font-family="Times,serif" font-size="14.00">[(None, 1)]</text>
</g>
<!-- 140669375760648 -->
<g id="node4" class="node">
<title>140669375760648</title>
<polygon fill="none" stroke="black" points="495.5,-415.5 495.5,-461.5 728.5,-461.5 728.5,-415.5 495.5,-415.5"/>
<text text-anchor="middle" x="546.5" y="-434.8" font-family="Times,serif" font-size="14.00">dense_4: Dense</text>
<polyline fill="none" stroke="black" points="597.5,-415.5 597.5,-461.5 "/>
<text text-anchor="middle" x="625" y="-446.3" font-family="Times,serif" font-size="14.00">input:</text>
<polyline fill="none" stroke="black" points="597.5,-438.5 652.5,-438.5 "/>
<text text-anchor="middle" x="625" y="-423.3" font-family="Times,serif" font-size="14.00">output:</text>
<polyline fill="none" stroke="black" points="652.5,-415.5 652.5,-461.5 "/>
<text text-anchor="middle" x="690.5" y="-446.3" font-family="Times,serif" font-size="14.00">(None, 1)</text>
<polyline fill="none" stroke="black" points="652.5,-438.5 728.5,-438.5 "/>
<text text-anchor="middle" x="690.5" y="-423.3" font-family="Times,serif" font-size="14.00">(None, 48)</text>
</g>
<!-- 140669376537824&#45;&gt;140669375760648 -->
<g id="edge2" class="edge">
<title>140669376537824&#45;&gt;140669375760648</title>
<path fill="none" stroke="black" d="M612,-498.37C612,-490.15 612,-480.66 612,-471.73"/>
<polygon fill="black" stroke="black" points="615.5,-471.61 612,-461.61 608.5,-471.61 615.5,-471.61"/>
</g>
<!-- 140669376609584 -->
<g id="node5" class="node">
<title>140669376609584</title>
<polygon fill="none" stroke="black" points="0,-332.5 0,-378.5 398,-378.5 398,-332.5 0,-332.5"/>
<text text-anchor="middle" x="130" y="-351.8" font-family="Times,serif" font-size="14.00">batch_normalization_2: BatchNormalization</text>
<polyline fill="none" stroke="black" points="260,-332.5 260,-378.5 "/>
<text text-anchor="middle" x="287.5" y="-363.3" font-family="Times,serif" font-size="14.00">input:</text>
<polyline fill="none" stroke="black" points="260,-355.5 315,-355.5 "/>
<text text-anchor="middle" x="287.5" y="-340.3" font-family="Times,serif" font-size="14.00">output:</text>
<polyline fill="none" stroke="black" points="315,-332.5 315,-378.5 "/>
<text text-anchor="middle" x="356.5" y="-363.3" font-family="Times,serif" font-size="14.00">(None, 256)</text>
<polyline fill="none" stroke="black" points="315,-355.5 398,-355.5 "/>
<text text-anchor="middle" x="356.5" y="-340.3" font-family="Times,serif" font-size="14.00">(None, 256)</text>
</g>
<!-- 140669376655088&#45;&gt;140669376609584 -->
<g id="edge3" class="edge">
<title>140669376655088&#45;&gt;140669376609584</title>
<path fill="none" stroke="black" d="M199,-415.37C199,-407.15 199,-397.66 199,-388.73"/>
<polygon fill="black" stroke="black" points="202.5,-388.61 199,-378.61 195.5,-388.61 202.5,-388.61"/>
</g>
<!-- 140669376403048 -->
<g id="node6" class="node">
<title>140669376403048</title>
<polygon fill="none" stroke="black" points="416.5,-332.5 416.5,-378.5 807.5,-378.5 807.5,-332.5 416.5,-332.5"/>
<text text-anchor="middle" x="546.5" y="-351.8" font-family="Times,serif" font-size="14.00">batch_normalization_3: BatchNormalization</text>
<polyline fill="none" stroke="black" points="676.5,-332.5 676.5,-378.5 "/>
<text text-anchor="middle" x="704" y="-363.3" font-family="Times,serif" font-size="14.00">input:</text>
<polyline fill="none" stroke="black" points="676.5,-355.5 731.5,-355.5 "/>
<text text-anchor="middle" x="704" y="-340.3" font-family="Times,serif" font-size="14.00">output:</text>
<polyline fill="none" stroke="black" points="731.5,-332.5 731.5,-378.5 "/>
<text text-anchor="middle" x="769.5" y="-363.3" font-family="Times,serif" font-size="14.00">(None, 48)</text>
<polyline fill="none" stroke="black" points="731.5,-355.5 807.5,-355.5 "/>
<text text-anchor="middle" x="769.5" y="-340.3" font-family="Times,serif" font-size="14.00">(None, 48)</text>
</g>
<!-- 140669375760648&#45;&gt;140669376403048 -->
<g id="edge4" class="edge">
<title>140669375760648&#45;&gt;140669376403048</title>
<path fill="none" stroke="black" d="M612,-415.37C612,-407.15 612,-397.66 612,-388.73"/>
<polygon fill="black" stroke="black" points="615.5,-388.61 612,-378.61 608.5,-388.61 615.5,-388.61"/>
</g>
<!-- 140669376402824 -->
<g id="node7" class="node">
<title>140669376402824</title>
<polygon fill="none" stroke="black" points="221,-249.5 221,-295.5 589,-295.5 589,-249.5 221,-249.5"/>
<text text-anchor="middle" x="298.5" y="-268.8" font-family="Times,serif" font-size="14.00">concatenate: Concatenate</text>
<polyline fill="none" stroke="black" points="376,-249.5 376,-295.5 "/>
<text text-anchor="middle" x="403.5" y="-280.3" font-family="Times,serif" font-size="14.00">input:</text>
<polyline fill="none" stroke="black" points="376,-272.5 431,-272.5 "/>
<text text-anchor="middle" x="403.5" y="-257.3" font-family="Times,serif" font-size="14.00">output:</text>
<polyline fill="none" stroke="black" points="431,-249.5 431,-295.5 "/>
<text text-anchor="middle" x="510" y="-280.3" font-family="Times,serif" font-size="14.00">[(None, 256), (None, 48)]</text>
<polyline fill="none" stroke="black" points="431,-272.5 589,-272.5 "/>
<text text-anchor="middle" x="510" y="-257.3" font-family="Times,serif" font-size="14.00">(None, 304)</text>
</g>
<!-- 140669376609584&#45;&gt;140669376402824 -->
<g id="edge5" class="edge">
<title>140669376609584&#45;&gt;140669376402824</title>
<path fill="none" stroke="black" d="M255.02,-332.47C281.13,-322.21 312.37,-309.92 339.56,-299.23"/>
<polygon fill="black" stroke="black" points="340.97,-302.44 348.99,-295.52 338.41,-295.92 340.97,-302.44"/>
</g>
<!-- 140669376403048&#45;&gt;140669376402824 -->
<g id="edge6" class="edge">
<title>140669376403048&#45;&gt;140669376402824</title>
<path fill="none" stroke="black" d="M555.71,-332.47C529.47,-322.21 498.08,-309.92 470.76,-299.23"/>
<polygon fill="black" stroke="black" points="471.87,-295.91 461.28,-295.52 469.32,-302.43 471.87,-295.91"/>
</g>
<!-- 140669376617104 -->
<g id="node8" class="node">
<title>140669376617104</title>
<polygon fill="none" stroke="black" points="285,-166.5 285,-212.5 525,-212.5 525,-166.5 285,-166.5"/>
<text text-anchor="middle" x="336" y="-185.8" font-family="Times,serif" font-size="14.00">dense_5: Dense</text>
<polyline fill="none" stroke="black" points="387,-166.5 387,-212.5 "/>
<text text-anchor="middle" x="414.5" y="-197.3" font-family="Times,serif" font-size="14.00">input:</text>
<polyline fill="none" stroke="black" points="387,-189.5 442,-189.5 "/>
<text text-anchor="middle" x="414.5" y="-174.3" font-family="Times,serif" font-size="14.00">output:</text>
<polyline fill="none" stroke="black" points="442,-166.5 442,-212.5 "/>
<text text-anchor="middle" x="483.5" y="-197.3" font-family="Times,serif" font-size="14.00">(None, 304)</text>
<polyline fill="none" stroke="black" points="442,-189.5 525,-189.5 "/>
<text text-anchor="middle" x="483.5" y="-174.3" font-family="Times,serif" font-size="14.00">(None, 128)</text>
</g>
<!-- 140669376402824&#45;&gt;140669376617104 -->
<g id="edge7" class="edge">
<title>140669376402824&#45;&gt;140669376617104</title>
<path fill="none" stroke="black" d="M405,-249.37C405,-241.15 405,-231.66 405,-222.73"/>
<polygon fill="black" stroke="black" points="408.5,-222.61 405,-212.61 401.5,-222.61 408.5,-222.61"/>
</g>
<!-- 140669375712224 -->
<g id="node9" class="node">
<title>140669375712224</title>
<polygon fill="none" stroke="black" points="206,-83.5 206,-129.5 604,-129.5 604,-83.5 206,-83.5"/>
<text text-anchor="middle" x="336" y="-102.8" font-family="Times,serif" font-size="14.00">batch_normalization_4: BatchNormalization</text>
<polyline fill="none" stroke="black" points="466,-83.5 466,-129.5 "/>
<text text-anchor="middle" x="493.5" y="-114.3" font-family="Times,serif" font-size="14.00">input:</text>
<polyline fill="none" stroke="black" points="466,-106.5 521,-106.5 "/>
<text text-anchor="middle" x="493.5" y="-91.3" font-family="Times,serif" font-size="14.00">output:</text>
<polyline fill="none" stroke="black" points="521,-83.5 521,-129.5 "/>
<text text-anchor="middle" x="562.5" y="-114.3" font-family="Times,serif" font-size="14.00">(None, 128)</text>
<polyline fill="none" stroke="black" points="521,-106.5 604,-106.5 "/>
<text text-anchor="middle" x="562.5" y="-91.3" font-family="Times,serif" font-size="14.00">(None, 128)</text>
</g>
<!-- 140669376617104&#45;&gt;140669375712224 -->
<g id="edge8" class="edge">
<title>140669376617104&#45;&gt;140669375712224</title>
<path fill="none" stroke="black" d="M405,-166.37C405,-158.15 405,-148.66 405,-139.73"/>
<polygon fill="black" stroke="black" points="408.5,-139.61 405,-129.61 401.5,-139.61 408.5,-139.61"/>
</g>
<!-- 140669376540176 -->
<g id="node10" class="node">
<title>140669376540176</title>
<polygon fill="none" stroke="black" points="285,-0.5 285,-46.5 525,-46.5 525,-0.5 285,-0.5"/>
<text text-anchor="middle" x="336" y="-19.8" font-family="Times,serif" font-size="14.00">dense_6: Dense</text>
<polyline fill="none" stroke="black" points="387,-0.5 387,-46.5 "/>
<text text-anchor="middle" x="414.5" y="-31.3" font-family="Times,serif" font-size="14.00">input:</text>
<polyline fill="none" stroke="black" points="387,-23.5 442,-23.5 "/>
<text text-anchor="middle" x="414.5" y="-8.3" font-family="Times,serif" font-size="14.00">output:</text>
<polyline fill="none" stroke="black" points="442,-0.5 442,-46.5 "/>
<text text-anchor="middle" x="483.5" y="-31.3" font-family="Times,serif" font-size="14.00">(None, 128)</text>
<polyline fill="none" stroke="black" points="442,-23.5 525,-23.5 "/>
<text text-anchor="middle" x="483.5" y="-8.3" font-family="Times,serif" font-size="14.00">(None, 1)</text>
</g>
<!-- 140669375712224&#45;&gt;140669376540176 -->
<g id="edge9" class="edge">
<title>140669375712224&#45;&gt;140669376540176</title>
<path fill="none" stroke="black" d="M405,-83.37C405,-75.15 405,-65.66 405,-56.73"/>
<polygon fill="black" stroke="black" points="408.5,-56.61 405,-46.61 401.5,-56.61 408.5,-56.61"/>
</g>
</g>
</svg>
