<?xml version="1.0" encoding="UTF-8" standalone="no"?>
<!DOCTYPE svg PUBLIC "-//W3C//DTD SVG 1.1//EN"
 "http://www.w3.org/Graphics/SVG/1.1/DTD/svg11.dtd">
<!-- Generated by graphviz version 3.0.0 (20220226.1711)
 -->
<!-- Title: G Pages: 1 -->
<svg width="549pt" height="737pt"
 viewBox="0.00 0.00 412.00 553.00" xmlns="http://www.w3.org/2000/svg" xmlns:xlink="http://www.w3.org/1999/xlink">
<g id="graph0" class="graph" transform="scale(1.33333 1.33333) rotate(0) translate(4 549)">
<title>G</title>
<polygon fill="white" stroke="transparent" points="-4,4 -4,-549 408,-549 408,4 -4,4"/>
<!-- 140669376837280 -->
<g id="node1" class="node">
<title>140669376837280</title>
<polygon fill="none" stroke="black" points="69.5,-498.5 69.5,-544.5 334.5,-544.5 334.5,-498.5 69.5,-498.5"/>
<text text-anchor="middle" x="135.5" y="-517.8" font-family="Times,serif" font-size="14.00">input_10: InputLayer</text>
<polyline fill="none" stroke="black" points="201.5,-498.5 201.5,-544.5 "/>
<text text-anchor="middle" x="229" y="-529.3" font-family="Times,serif" font-size="14.00">input:</text>
<polyline fill="none" stroke="black" points="201.5,-521.5 256.5,-521.5 "/>
<text text-anchor="middle" x="229" y="-506.3" font-family="Times,serif" font-size="14.00">output:</text>
<polyline fill="none" stroke="black" points="256.5,-498.5 256.5,-544.5 "/>
<text text-anchor="middle" x="295.5" y="-529.3" font-family="Times,serif" font-size="14.00">[(None, 4)]</text>
<polyline fill="none" stroke="black" points="256.5,-521.5 334.5,-521.5 "/>
<text text-anchor="middle" x="295.5" y="-506.3" font-family="Times,serif" font-size="14.00">[(None, 4)]</text>
</g>
<!-- 140669376839240 -->
<g id="node2" class="node">
<title>140669376839240</title>
<polygon fill="none" stroke="black" points="78.5,-415.5 78.5,-461.5 325.5,-461.5 325.5,-415.5 78.5,-415.5"/>
<text text-anchor="middle" x="133" y="-434.8" font-family="Times,serif" font-size="14.00">dense_21: Dense</text>
<polyline fill="none" stroke="black" points="187.5,-415.5 187.5,-461.5 "/>
<text text-anchor="middle" x="215" y="-446.3" font-family="Times,serif" font-size="14.00">input:</text>
<polyline fill="none" stroke="black" points="187.5,-438.5 242.5,-438.5 "/>
<text text-anchor="middle" x="215" y="-423.3" font-family="Times,serif" font-size="14.00">output:</text>
<polyline fill="none" stroke="black" points="242.5,-415.5 242.5,-461.5 "/>
<text text-anchor="middle" x="284" y="-446.3" font-family="Times,serif" font-size="14.00">(None, 4)</text>
<polyline fill="none" stroke="black" points="242.5,-438.5 325.5,-438.5 "/>
<text text-anchor="middle" x="284" y="-423.3" font-family="Times,serif" font-size="14.00">(None, 256)</text>
</g>
<!-- 140669376837280&#45;&gt;140669376839240 -->
<g id="edge1" class="edge">
<title>140669376837280&#45;&gt;140669376839240</title>
<path fill="none" stroke="black" d="M202,-498.37C202,-490.15 202,-480.66 202,-471.73"/>
<polygon fill="black" stroke="black" points="205.5,-471.61 202,-461.61 198.5,-471.61 205.5,-471.61"/>
</g>
<!-- 140669376615368 -->
<g id="node3" class="node">
<title>140669376615368</title>
<polygon fill="none" stroke="black" points="0,-332.5 0,-378.5 404,-378.5 404,-332.5 0,-332.5"/>
<text text-anchor="middle" x="133" y="-351.8" font-family="Times,serif" font-size="14.00">batch_normalization_15: BatchNormalization</text>
<polyline fill="none" stroke="black" points="266,-332.5 266,-378.5 "/>
<text text-anchor="middle" x="293.5" y="-363.3" font-family="Times,serif" font-size="14.00">input:</text>
<polyline fill="none" stroke="black" points="266,-355.5 321,-355.5 "/>
<text text-anchor="middle" x="293.5" y="-340.3" font-family="Times,serif" font-size="14.00">output:</text>
<polyline fill="none" stroke="black" points="321,-332.5 321,-378.5 "/>
<text text-anchor="middle" x="362.5" y="-363.3" font-family="Times,serif" font-size="14.00">(None, 256)</text>
<polyline fill="none" stroke="black" points="321,-355.5 404,-355.5 "/>
<text text-anchor="middle" x="362.5" y="-340.3" font-family="Times,serif" font-size="14.00">(None, 256)</text>
</g>
<!-- 140669376839240&#45;&gt;140669376615368 -->
<g id="edge2" class="edge">
<title>140669376839240&#45;&gt;140669376615368</title>
<path fill="none" stroke="black" d="M202,-415.37C202,-407.15 202,-397.66 202,-388.73"/>
<polygon fill="black" stroke="black" points="205.5,-388.61 202,-378.61 198.5,-388.61 205.5,-388.61"/>
</g>
<!-- 140669379244720 -->
<g id="node4" class="node">
<title>140669379244720</title>
<polygon fill="none" stroke="black" points="78.5,-249.5 78.5,-295.5 325.5,-295.5 325.5,-249.5 78.5,-249.5"/>
<text text-anchor="middle" x="133" y="-268.8" font-family="Times,serif" font-size="14.00">dense_22: Dense</text>
<polyline fill="none" stroke="black" points="187.5,-249.5 187.5,-295.5 "/>
<text text-anchor="middle" x="215" y="-280.3" font-family="Times,serif" font-size="14.00">input:</text>
<polyline fill="none" stroke="black" points="187.5,-272.5 242.5,-272.5 "/>
<text text-anchor="middle" x="215" y="-257.3" font-family="Times,serif" font-size="14.00">output:</text>
<polyline fill="none" stroke="black" points="242.5,-249.5 242.5,-295.5 "/>
<text text-anchor="middle" x="284" y="-280.3" font-family="Times,serif" font-size="14.00">(None, 256)</text>
<polyline fill="none" stroke="black" points="242.5,-272.5 325.5,-272.5 "/>
<text text-anchor="middle" x="284" y="-257.3" font-family="Times,serif" font-size="14.00">(None, 128)</text>
</g>
<!-- 140669376615368&#45;&gt;140669379244720 -->
<g id="edge3" class="edge">
<title>140669376615368&#45;&gt;140669379244720</title>
<path fill="none" stroke="black" d="M202,-332.37C202,-324.15 202,-314.66 202,-305.73"/>
<polygon fill="black" stroke="black" points="205.5,-305.61 202,-295.61 198.5,-305.61 205.5,-305.61"/>
</g>
<!-- 140669387478800 -->
<g id="node5" class="node">
<title>140669387478800</title>
<polygon fill="none" stroke="black" points="0,-166.5 0,-212.5 404,-212.5 404,-166.5 0,-166.5"/>
<text text-anchor="middle" x="133" y="-185.8" font-family="Times,serif" font-size="14.00">batch_normalization_16: BatchNormalization</text>
<polyline fill="none" stroke="black" points="266,-166.5 266,-212.5 "/>
<text text-anchor="middle" x="293.5" y="-197.3" font-family="Times,serif" font-size="14.00">input:</text>
<polyline fill="none" stroke="black" points="266,-189.5 321,-189.5 "/>
<text text-anchor="middle" x="293.5" y="-174.3" font-family="Times,serif" font-size="14.00">output:</text>
<polyline fill="none" stroke="black" points="321,-166.5 321,-212.5 "/>
<text text-anchor="middle" x="362.5" y="-197.3" font-family="Times,serif" font-size="14.00">(None, 128)</text>
<polyline fill="none" stroke="black" points="321,-189.5 404,-189.5 "/>
<text text-anchor="middle" x="362.5" y="-174.3" font-family="Times,serif" font-size="14.00">(None, 128)</text>
</g>
<!-- 140669379244720&#45;&gt;140669387478800 -->
<g id="edge4" class="edge">
<title>140669379244720&#45;&gt;140669387478800</title>
<path fill="none" stroke="black" d="M202,-249.37C202,-241.15 202,-231.66 202,-222.73"/>
<polygon fill="black" stroke="black" points="205.5,-222.61 202,-212.61 198.5,-222.61 205.5,-222.61"/>
</g>
<!-- 140669387477176 -->
<g id="node6" class="node">
<title>140669387477176</title>
<polygon fill="none" stroke="black" points="78.5,-83.5 78.5,-129.5 325.5,-129.5 325.5,-83.5 78.5,-83.5"/>
<text text-anchor="middle" x="133" y="-102.8" font-family="Times,serif" font-size="14.00">dense_23: Dense</text>
<polyline fill="none" stroke="black" points="187.5,-83.5 187.5,-129.5 "/>
<text text-anchor="middle" x="215" y="-114.3" font-family="Times,serif" font-size="14.00">input:</text>
<polyline fill="none" stroke="black" points="187.5,-106.5 242.5,-106.5 "/>
<text text-anchor="middle" x="215" y="-91.3" font-family="Times,serif" font-size="14.00">output:</text>
<polyline fill="none" stroke="black" points="242.5,-83.5 242.5,-129.5 "/>
<text text-anchor="middle" x="284" y="-114.3" font-family="Times,serif" font-size="14.00">(None, 128)</text>
<polyline fill="none" stroke="black" points="242.5,-106.5 325.5,-106.5 "/>
<text text-anchor="middle" x="284" y="-91.3" font-family="Times,serif" font-size="14.00">(None, 1)</text>
</g>
<!-- 140669387478800&#45;&gt;140669387477176 -->
<g id="edge5" class="edge">
<title>140669387478800&#45;&gt;140669387477176</title>
<path fill="none" stroke="black" d="M202,-166.37C202,-158.15 202,-148.66 202,-139.73"/>
<polygon fill="black" stroke="black" points="205.5,-139.61 202,-129.61 198.5,-139.61 205.5,-139.61"/>
</g>
<!-- 140669387515888 -->
<g id="node7" class="node">
<title>140669387515888</title>
<polygon fill="none" stroke="black" points="38,-0.5 38,-46.5 366,-46.5 366,-0.5 38,-0.5"/>
<text text-anchor="middle" x="140" y="-19.8" font-family="Times,serif" font-size="14.00">tf.math.multiply_3: TFOpLambda</text>
<polyline fill="none" stroke="black" points="242,-0.5 242,-46.5 "/>
<text text-anchor="middle" x="269.5" y="-31.3" font-family="Times,serif" font-size="14.00">input:</text>
<polyline fill="none" stroke="black" points="242,-23.5 297,-23.5 "/>
<text text-anchor="middle" x="269.5" y="-8.3" font-family="Times,serif" font-size="14.00">output:</text>
<polyline fill="none" stroke="black" points="297,-0.5 297,-46.5 "/>
<text text-anchor="middle" x="331.5" y="-31.3" font-family="Times,serif" font-size="14.00">(None, 1)</text>
<polyline fill="none" stroke="black" points="297,-23.5 366,-23.5 "/>
<text text-anchor="middle" x="331.5" y="-8.3" font-family="Times,serif" font-size="14.00">(None, 1)</text>
</g>
<!-- 140669387477176&#45;&gt;140669387515888 -->
<g id="edge6" class="edge">
<title>140669387477176&#45;&gt;140669387515888</title>
<path fill="none" stroke="black" d="M202,-83.37C202,-75.15 202,-65.66 202,-56.73"/>
<polygon fill="black" stroke="black" points="205.5,-56.61 202,-46.61 198.5,-56.61 205.5,-56.61"/>
</g>
</g>
</svg>
