<?xml version="1.0" encoding="UTF-8" standalone="no"?>
<!DOCTYPE svg PUBLIC "-//W3C//DTD SVG 1.1//EN"
 "http://www.w3.org/Graphics/SVG/1.1/DTD/svg11.dtd">
<!-- Generated by graphviz version 3.0.0 (20220226.1711)
 -->
<!-- Title: G Pages: 1 -->
<svg width="541pt" height="737pt"
 viewBox="0.00 0.00 406.00 553.00" xmlns="http://www.w3.org/2000/svg" xmlns:xlink="http://www.w3.org/1999/xlink">
<g id="graph0" class="graph" transform="scale(1.33333 1.33333) rotate(0) translate(4 549)">
<title>G</title>
<polygon fill="white" stroke="transparent" points="-4,4 -4,-549 402,-549 402,4 -4,4"/>
<!-- 140669376836328 -->
<g id="node1" class="node">
<title>140669376836328</title>
<polygon fill="none" stroke="black" points="70,-498.5 70,-544.5 328,-544.5 328,-498.5 70,-498.5"/>
<text text-anchor="middle" x="132.5" y="-517.8" font-family="Times,serif" font-size="14.00">input_4: InputLayer</text>
<polyline fill="none" stroke="black" points="195,-498.5 195,-544.5 "/>
<text text-anchor="middle" x="222.5" y="-529.3" font-family="Times,serif" font-size="14.00">input:</text>
<polyline fill="none" stroke="black" points="195,-521.5 250,-521.5 "/>
<text text-anchor="middle" x="222.5" y="-506.3" font-family="Times,serif" font-size="14.00">output:</text>
<polyline fill="none" stroke="black" points="250,-498.5 250,-544.5 "/>
<text text-anchor="middle" x="289" y="-529.3" font-family="Times,serif" font-size="14.00">[(None, 4)]</text>
<polyline fill="none" stroke="black" points="250,-521.5 328,-521.5 "/>
<text text-anchor="middle" x="289" y="-506.3" font-family="Times,serif" font-size="14.00">[(None, 4)]</text>
</g>
<!-- 140669376539448 -->
<g id="node2" class="node">
<title>140669376539448</title>
<polygon fill="none" stroke="black" points="79,-415.5 79,-461.5 319,-461.5 319,-415.5 79,-415.5"/>
<text text-anchor="middle" x="130" y="-434.8" font-family="Times,serif" font-size="14.00">dense_7: Dense</text>
<polyline fill="none" stroke="black" points="181,-415.5 181,-461.5 "/>
<text text-anchor="middle" x="208.5" y="-446.3" font-family="Times,serif" font-size="14.00">input:</text>
<polyline fill="none" stroke="black" points="181,-438.5 236,-438.5 "/>
<text text-anchor="middle" x="208.5" y="-423.3" font-family="Times,serif" font-size="14.00">output:</text>
<polyline fill="none" stroke="black" points="236,-415.5 236,-461.5 "/>
<text text-anchor="middle" x="277.5" y="-446.3" font-family="Times,serif" font-size="14.00">(None, 4)</text>
<polyline fill="none" stroke="black" points="236,-438.5 319,-438.5 "/>
<text text-anchor="middle" x="277.5" y="-423.3" font-family="Times,serif" font-size="14.00">(None, 256)</text>
</g>
<!-- 140669376836328&#45;&gt;140669376539448 -->
<g id="edge1" class="edge">
<title>140669376836328&#45;&gt;140669376539448</title>
<path fill="none" stroke="black" d="M199,-498.37C199,-490.15 199,-480.66 199,-471.73"/>
<polygon fill="black" stroke="black" points="202.5,-471.61 199,-461.61 195.5,-471.61 202.5,-471.61"/>
</g>
<!-- 140669375793976 -->
<g id="node3" class="node">
<title>140669375793976</title>
<polygon fill="none" stroke="black" points="0,-332.5 0,-378.5 398,-378.5 398,-332.5 0,-332.5"/>
<text text-anchor="middle" x="130" y="-351.8" font-family="Times,serif" font-size="14.00">batch_normalization_5: BatchNormalization</text>
<polyline fill="none" stroke="black" points="260,-332.5 260,-378.5 "/>
<text text-anchor="middle" x="287.5" y="-363.3" font-family="Times,serif" font-size="14.00">input:</text>
<polyline fill="none" stroke="black" points="260,-355.5 315,-355.5 "/>
<text text-anchor="middle" x="287.5" y="-340.3" font-family="Times,serif" font-size="14.00">output:</text>
<polyline fill="none" stroke="black" points="315,-332.5 315,-378.5 "/>
<text text-anchor="middle" x="356.5" y="-363.3" font-family="Times,serif" font-size="14.00">(None, 256)</text>
<polyline fill="none" stroke="black" points="315,-355.5 398,-355.5 "/>
<text text-anchor="middle" x="356.5" y="-340.3" font-family="Times,serif" font-size="14.00">(None, 256)</text>
</g>
<!-- 140669376539448&#45;&gt;140669375793976 -->
<g id="edge2" class="edge">
<title>140669376539448&#45;&gt;140669375793976</title>
<path fill="none" stroke="black" d="M199,-415.37C199,-407.15 199,-397.66 199,-388.73"/>
<polygon fill="black" stroke="black" points="202.5,-388.61 199,-378.61 195.5,-388.61 202.5,-388.61"/>
</g>
<!-- 140669376875824 -->
<g id="node4" class="node">
<title>140669376875824</title>
<polygon fill="none" stroke="black" points="79,-249.5 79,-295.5 319,-295.5 319,-249.5 79,-249.5"/>
<text text-anchor="middle" x="130" y="-268.8" font-family="Times,serif" font-size="14.00">dense_8: Dense</text>
<polyline fill="none" stroke="black" points="181,-249.5 181,-295.5 "/>
<text text-anchor="middle" x="208.5" y="-280.3" font-family="Times,serif" font-size="14.00">input:</text>
<polyline fill="none" stroke="black" points="181,-272.5 236,-272.5 "/>
<text text-anchor="middle" x="208.5" y="-257.3" font-family="Times,serif" font-size="14.00">output:</text>
<polyline fill="none" stroke="black" points="236,-249.5 236,-295.5 "/>
<text text-anchor="middle" x="277.5" y="-280.3" font-family="Times,serif" font-size="14.00">(None, 256)</text>
<polyline fill="none" stroke="black" points="236,-272.5 319,-272.5 "/>
<text text-anchor="middle" x="277.5" y="-257.3" font-family="Times,serif" font-size="14.00">(None, 128)</text>
</g>
<!-- 140669375793976&#45;&gt;140669376875824 -->
<g id="edge3" class="edge">
<title>140669375793976&#45;&gt;140669376875824</title>
<path fill="none" stroke="black" d="M199,-332.37C199,-324.15 199,-314.66 199,-305.73"/>
<polygon fill="black" stroke="black" points="202.5,-305.61 199,-295.61 195.5,-305.61 202.5,-305.61"/>
</g>
<!-- 140669376954720 -->
<g id="node5" class="node">
<title>140669376954720</title>
<polygon fill="none" stroke="black" points="0,-166.5 0,-212.5 398,-212.5 398,-166.5 0,-166.5"/>
<text text-anchor="middle" x="130" y="-185.8" font-family="Times,serif" font-size="14.00">batch_normalization_6: BatchNormalization</text>
<polyline fill="none" stroke="black" points="260,-166.5 260,-212.5 "/>
<text text-anchor="middle" x="287.5" y="-197.3" font-family="Times,serif" font-size="14.00">input:</text>
<polyline fill="none" stroke="black" points="260,-189.5 315,-189.5 "/>
<text text-anchor="middle" x="287.5" y="-174.3" font-family="Times,serif" font-size="14.00">output:</text>
<polyline fill="none" stroke="black" points="315,-166.5 315,-212.5 "/>
<text text-anchor="middle" x="356.5" y="-197.3" font-family="Times,serif" font-size="14.00">(None, 128)</text>
<polyline fill="none" stroke="black" points="315,-189.5 398,-189.5 "/>
<text text-anchor="middle" x="356.5" y="-174.3" font-family="Times,serif" font-size="14.00">(None, 128)</text>
</g>
<!-- 140669376875824&#45;&gt;140669376954720 -->
<g id="edge4" class="edge">
<title>140669376875824&#45;&gt;140669376954720</title>
<path fill="none" stroke="black" d="M199,-249.37C199,-241.15 199,-231.66 199,-222.73"/>
<polygon fill="black" stroke="black" points="202.5,-222.61 199,-212.61 195.5,-222.61 202.5,-222.61"/>
</g>
<!-- 140669376984232 -->
<g id="node6" class="node">
<title>140669376984232</title>
<polygon fill="none" stroke="black" points="79,-83.5 79,-129.5 319,-129.5 319,-83.5 79,-83.5"/>
<text text-anchor="middle" x="130" y="-102.8" font-family="Times,serif" font-size="14.00">dense_9: Dense</text>
<polyline fill="none" stroke="black" points="181,-83.5 181,-129.5 "/>
<text text-anchor="middle" x="208.5" y="-114.3" font-family="Times,serif" font-size="14.00">input:</text>
<polyline fill="none" stroke="black" points="181,-106.5 236,-106.5 "/>
<text text-anchor="middle" x="208.5" y="-91.3" font-family="Times,serif" font-size="14.00">output:</text>
<polyline fill="none" stroke="black" points="236,-83.5 236,-129.5 "/>
<text text-anchor="middle" x="277.5" y="-114.3" font-family="Times,serif" font-size="14.00">(None, 128)</text>
<polyline fill="none" stroke="black" points="236,-106.5 319,-106.5 "/>
<text text-anchor="middle" x="277.5" y="-91.3" font-family="Times,serif" font-size="14.00">(None, 1)</text>
</g>
<!-- 140669376954720&#45;&gt;140669376984232 -->
<g id="edge5" class="edge">
<title>140669376954720&#45;&gt;140669376984232</title>
<path fill="none" stroke="black" d="M199,-166.37C199,-158.15 199,-148.66 199,-139.73"/>
<polygon fill="black" stroke="black" points="202.5,-139.61 199,-129.61 195.5,-139.61 202.5,-139.61"/>
</g>
<!-- 140669378415024 -->
<g id="node7" class="node">
<title>140669378415024</title>
<polygon fill="none" stroke="black" points="35,-0.5 35,-46.5 363,-46.5 363,-0.5 35,-0.5"/>
<text text-anchor="middle" x="137" y="-19.8" font-family="Times,serif" font-size="14.00">tf.math.multiply_1: TFOpLambda</text>
<polyline fill="none" stroke="black" points="239,-0.5 239,-46.5 "/>
<text text-anchor="middle" x="266.5" y="-31.3" font-family="Times,serif" font-size="14.00">input:</text>
<polyline fill="none" stroke="black" points="239,-23.5 294,-23.5 "/>
<text text-anchor="middle" x="266.5" y="-8.3" font-family="Times,serif" font-size="14.00">output:</text>
<polyline fill="none" stroke="black" points="294,-0.5 294,-46.5 "/>
<text text-anchor="middle" x="328.5" y="-31.3" font-family="Times,serif" font-size="14.00">(None, 1)</text>
<polyline fill="none" stroke="black" points="294,-23.5 363,-23.5 "/>
<text text-anchor="middle" x="328.5" y="-8.3" font-family="Times,serif" font-size="14.00">(None, 1)</text>
</g>
<!-- 140669376984232&#45;&gt;140669378415024 -->
<g id="edge6" class="edge">
<title>140669376984232&#45;&gt;140669378415024</title>
<path fill="none" stroke="black" d="M199,-83.37C199,-75.15 199,-65.66 199,-56.73"/>
<polygon fill="black" stroke="black" points="202.5,-56.61 199,-46.61 195.5,-56.61 202.5,-56.61"/>
</g>
</g>
</svg>
